<?xml version="1.0" standalone="no"?>
<!DOCTYPE svg PUBLIC "-//W3C//DTD SVG 20010904//EN"
 "http://www.w3.org/TR/2001/REC-SVG-20010904/DTD/svg10.dtd">
<svg version="1.0" xmlns="http://www.w3.org/2000/svg"
 width="32.000000pt" height="32.000000pt" viewBox="0 0 32.000000 32.000000"
 preserveAspectRatio="xMidYMid meet">

<g transform="translate(0.000000,32.000000) scale(0.100000,-0.100000)"
fill="#000000" stroke="none">
<path d="M117 273 c-4 -3 -7 -15 -7 -25 0 -19 -15 -24 -25 -8 -10 16 -25 12
-19 -5 4 -10 0 -15 -11 -15 -14 0 -15 -3 -5 -15 16 -20 41 -20 34 0 -4 11 -2
13 9 10 8 -4 21 1 30 9 11 12 22 13 50 5 19 -5 38 -16 41 -24 3 -8 10 -15 15
-15 6 0 7 7 4 17 -4 11 -3 14 5 9 7 -4 12 -2 12 4 0 6 5 8 13 4 8 -5 7 -2 -2
9 -12 16 -16 16 -30 3 -11 -10 -21 -12 -31 -5 -13 8 -13 11 3 20 20 12 14 29
-11 29 -12 0 -13 -3 -5 -8 9 -6 7 -11 -7 -20 -17 -10 -22 -9 -32 8 -14 21 -20
24 -31 13z"/>
</g>
</svg>
